# xmcd CD database file
#
# Track frame offsets:
#	150
#	22106
#	39053
#	60347
#	78723
#	92463
#	111186
#	132981
#	155593
#	176480
#	192732
#	209836
#
# Disc length: 2965 seconds
#
# Revision: 2
# Processed by: cddbd v1.5.2PL0 Copyright (c) Steve Scherf et al.
# Submitted via: CDex 1.51
#
DISCID=a40b930c
DTITLE=Jay Farrar, Will Johnson, Anders Parker, Yim Yames - New Multitudes - Unrecorded Woody Guthrie
DYEAR=2012
DGENRE=Folk
TTITLE0=Hoping Machine
TTITLE1=Fly High
TTITLE2=My Revolutionary Mind
TTITLE3=V.D. City
TTITLE4=Old L.A.
TTITLE5=Talking Empty Bed Blues
TTITLE6=Chorine My Sheba Queen
TTITLE7=Careless Reckless Love
TTITLE8=Angel's Blues
TTITLE9=No Fear
TTITLE10=Changing World
TTITLE11=New Multitudes
EXTD=YEAR: 2012
EXTT0=
EXTT1=
EXTT2=
EXTT3=
EXTT4=
EXTT5=
EXTT6=
EXTT7=
EXTT8=
EXTT9=
EXTT10=
EXTT11=
PLAYORDER=
